<svg width="88" height="55" viewBox="0 0 88 55" fill="none" xmlns="http://www.w3.org/2000/svg">
<path d="M88 26.3107V28.6915L87.9147 29.0731C87.7718 30.1137 87.67 31.1543 87.472 32.1705C86.7959 35.4678 85.3314 38.6275 83.16 41.4737C79.9667 45.7509 75.3249 49.2027 69.7812 51.4225C66.5547 52.7301 63.069 53.5712 59.4825 53.9076C58.6795 53.9874 57.8793 54.0584 57.09 54.1272H26.1663C26.0095 54.105 25.8665 54.0695 25.707 54.0584C22.6062 53.9071 19.5642 53.3082 16.7255 52.2901C10.494 50.0491 5.85475 46.4304 2.81875 41.4515C1.48417 39.2458 0.61781 36.8751 0.255753 34.438L-0.00274658 32.6586V30.3466C0.0247534 30.2202 0.0687534 30.0915 0.0825034 29.965C0.239253 27.7574 0.797503 25.5963 1.77375 23.5284C4.3945 17.9705 8.97875 13.8436 15.4798 11.1633C18.8153 9.79974 22.472 9.02378 26.2075 8.88689C28.0555 8.81811 29.9035 8.88689 31.7213 9.09546C31.817 9.10441 31.914 9.09656 32.0056 9.07243C32.0972 9.0483 32.1813 9.00847 32.252 8.95568C34.8507 6.76716 37.8985 4.9574 41.261 3.60627C44.5055 2.28965 48.0105 1.44113 51.6175 1.09908C52.4783 1.01921 53.3363 0.948206 54.1805 0.879425H56.815C56.9883 0.901613 57.1725 0.926019 57.332 0.937113C58.6493 1.06358 59.9528 1.14568 61.2563 1.32983C65.252 1.88452 69.091 3.07377 72.5147 4.83102C77.7874 7.48379 82.0112 11.2965 84.689 15.8205C86.2923 18.4785 87.3235 21.3452 87.7388 24.2806L87.9973 26.3152L88 26.3107ZM38.786 10.9281C38.8438 10.9858 38.8575 11.0213 38.885 11.0213C40.689 11.7602 42.4215 12.6166 44.055 13.5862C44.154 13.6439 44.4125 13.6217 44.5418 13.564C49.0105 11.2299 53.8808 10.4334 59.0948 11.1833C64.207 11.9355 68.376 14.0255 71.555 17.378C75.1493 21.1677 76.5243 25.4565 75.537 30.2157C74.8633 33.4063 73.3012 36.2818 70.653 38.6758C65.813 43.0556 59.752 44.8706 52.6213 44.1073C48.2378 43.6325 44.4428 42.0727 41.305 39.4724C37.279 36.1442 33.2255 32.8272 29.1885 29.4991C28.644 29.0487 28.0583 28.7025 27.2828 28.6205C26.6335 28.5479 25.9725 28.6474 25.3993 28.9038C24.826 29.1603 24.3714 29.5599 24.1038 30.0427C23.5868 30.9213 23.661 31.9264 24.7913 32.8383C29.2875 36.466 33.7425 40.1291 38.2415 43.759C39.0143 44.3825 39.8448 44.9616 40.7193 45.4807C44 47.4332 47.7098 48.5204 51.7192 48.9597C54.8708 49.2948 57.992 49.226 61.0858 48.6469C67.001 47.5597 71.8988 45.088 75.7515 41.2629C78.9051 38.1569 80.9061 34.395 81.5238 30.411C81.921 28.0861 81.8439 25.7245 81.2955 23.4197C80.3935 19.6634 78.4603 16.302 75.3528 13.4353C69.4238 7.96833 61.9603 5.52993 53.0805 6.07352C49.6862 6.30486 46.3887 7.10353 43.3978 8.41874C41.7549 9.11475 40.2128 9.95562 38.7998 10.9259L38.786 10.9281ZM36.6245 49.064C36.4953 48.9708 36.3798 48.8799 36.2533 48.7867C34.419 47.3645 32.571 45.9445 30.7533 44.5C30.6056 44.368 30.4241 44.2635 30.2213 44.1937C30.0185 44.124 29.7993 44.0907 29.579 44.0962C27.731 44.1317 25.8968 44.1428 24.079 43.8078C15.0563 42.1326 9.812 34.0786 13.1368 26.9941C15.7575 21.4117 23.0203 18.0148 30.1813 19.0554C33.3905 19.5302 36.212 20.6507 38.5303 22.6032C41.3518 24.995 44.2448 27.307 47.1103 29.6766C47.7538 30.2091 48.499 30.462 49.401 30.3577C50.5478 30.218 51.4773 29.7676 51.8925 28.8312C52.3078 27.906 52.107 27.0407 51.2628 26.3351C48.268 23.8501 45.3475 21.2964 42.24 18.9156C36.1955 14.294 29.0785 12.9184 21.1998 14.882C10.615 17.5289 4.41375 26.4949 6.83375 35.3477C9.03925 43.4262 17.6468 49.0773 27.7035 49.0884H36.1405C36.2698 49.0884 36.4128 49.0773 36.6273 49.0662L36.6245 49.064Z" fill="#FF735C"/>
</svg>
